<?xml version="1.0" encoding="iso-8859-1"?>
<!-- Generator: Adobe Illustrator 21.0.2, SVG Export Plug-In . SVG Version: 6.00 Build 0)  -->
<svg xmlns="http://www.w3.org/2000/svg" xmlns:xlink="http://www.w3.org/1999/xlink" version="1.1" id="Layer_1" x="0px" y="0px" viewBox="0 0 40 40" style="enable-background:new 0 0 40 40;" xml:space="preserve">
<path style="fill:#4788C7;" d="M20,32.214h4.071C24.071,26.491,26,20,26,20h-6V32.214z"/>
<g>
	<circle style="fill:#DFF0FE;" cx="20" cy="9" r="7.5"/>
	<path style="fill:#4788C7;" d="M20,2c3.86,0,7,3.14,7,7s-3.14,7-7,7s-7-3.14-7-7S16.14,2,20,2 M20,1c-4.418,0-8,3.582-8,8   s3.582,8,8,8s8-3.582,8-8S24.418,1,20,1L20,1z"/>
</g>
<g>
	<g>
		<path style="fill:#B6DCFE;" d="M16.5,33.5V32c0-8.062-0.155-8.682-1.015-12.121c-0.668-2.673-2.631-7.073-3.551-9.065    c1.234,1.838,2.207,2.7,3.039,2.7c0.866,0,1.241-0.818,1.404-1.524c1.834,1.776,6.722,7.76,5.128,19.946L21.501,33.5H16.5z"/>
		<path style="fill:#4788C7;" d="M16.585,12.911c2.025,2.223,5.856,8.009,4.424,18.959L21,31.935V32v1h-4v-1    c0-7.822-0.117-8.59-1.03-12.243c-0.43-1.719-1.382-4.13-2.258-6.177c0.434,0.294,0.848,0.433,1.26,0.433    C15.749,14.013,16.267,13.552,16.585,12.911 M12,10h-1c0,0,3.136,6.545,4,10s1,4.093,1,12v2h6v-2c2.006-15.342-6-21-6-21    s-0.041,2.013-1.028,2.013C14.383,13.013,13.456,12.295,12,10L12,10z"/>
	</g>
</g>
<g>
	<path style="fill:#B6DCFE;" d="M16.441,34.429l0.056-2.301C16.922,31.301,19.5,26.117,19.5,22c0-3.365-3.355-10.028-4.606-12.396   l0.29,0.294C16.972,11.731,19.674,14.5,23,14.5c3.727,0,5.076-4.569,5.406-6h0.08c-0.348,6.162-7.155,22.601-8.902,25.223   L19.5,33.849v0.58H16.441z"/>
	<g>
		<path style="fill:#4788C7;" d="M16.698,12.074C18.381,13.577,20.505,15,23,15c2,0,3.37-1.166,4.288-2.536    c-1.837,7.357-6.689,18.836-8.12,20.981L19,33.697v0.231h-2.047l0.041-1.675C17.556,31.145,20,26.083,20,22    C20,19.453,18.172,15.139,16.698,12.074 M29,8h-1c0,0-1.047,6-5,6c-3.455,0-6.273-3.273-8-5h-1c0,0,5,9.034,5,13    c0,4.318-3,10-3,10l-0.071,2.929H20V34C21.727,31.409,29.029,13.96,29,8L29,8z"/>
	</g>
</g>
<g>
	<ellipse style="fill:#B6DCFE;" cx="23.5" cy="12" rx="2" ry="2.5"/>
	<path style="fill:#4788C7;" d="M23.5,10c0.828,0,1.5,0.895,1.5,2s-0.672,2-1.5,2S22,13.105,22,12S22.672,10,23.5,10 M23.5,9   c-1.402,0-2.5,1.318-2.5,3s1.098,3,2.5,3s2.5-1.318,2.5-3S24.902,9,23.5,9L23.5,9z"/>
</g>
<g>
	<polygon style="fill:#B6DCFE;" points="13.5,38.5 13.5,37.139 16.283,32.5 23.717,32.5 26.5,37.139 26.5,38.5  "/>
	<path style="fill:#4788C7;" d="M23.434,33L26,37.277V38H14v-0.723L16.566,33H23.434 M24,32h-8l-3,5v2h14v-2L24,32L24,32z"/>
</g>
<path style="fill:#FFFFFF;" d="M19.5,3C16.467,3,14,5.467,14,8.5V9h1V8.5C15,6.019,17.019,4,19.5,4C19.776,4,20,3.776,20,3.5  S19.776,3,19.5,3z"/>
<path style="fill:#4788C7;" d="M25.5,36h-5c-0.275,0-0.5-0.225-0.5-0.5l0,0c0-0.275,0.225-0.5,0.5-0.5h5c0.275,0,0.5,0.225,0.5,0.5  l0,0C26,35.775,25.775,36,25.5,36z"/>
<path style="fill:#4788C7;" d="M14.5,36h3c0.275,0,0.5-0.225,0.5-0.5l0,0c0-0.275-0.225-0.5-0.5-0.5h-3c-0.275,0-0.5,0.225-0.5,0.5  l0,0C14,35.775,14.225,36,14.5,36z"/>
</svg>
